<svg xmlns="http://www.w3.org/2000/svg" xmlns:xlink="http://www.w3.org/1999/xlink" viewBox="82.75 11.617000579833984 302.1518249511719 172" width="351.3393313385719" height="200"><path d="M 92.750,144.117 C 93.651,141.585 94.000,141.867 95.250,139.617" stroke-width="5.516" stroke="black" fill="none" stroke-linecap="round"></path><path d="M 95.250,139.617 C 97.288,137.908 96.901,137.585 99.250,136.117" stroke-width="4.542" stroke="black" fill="none" stroke-linecap="round"></path><path d="M 99.250,136.117 C 102.946,132.558 103.038,132.658 106.750,129.117" stroke-width="3.825" stroke="black" fill="none" stroke-linecap="round"></path><path d="M 106.750,129.117 C 113.386,122.984 113.446,123.058 120.250,117.117" stroke-width="3.114" stroke="black" fill="none" stroke-linecap="round"></path><path d="M 120.250,117.117 C 129.011,109.880 128.886,109.734 137.750,102.617" stroke-width="2.515" stroke="black" fill="none" stroke-linecap="round"></path><path d="M 137.750,102.617 C 148.091,93.669 148.261,93.880 158.750,85.117" stroke-width="2.311" stroke="black" fill="none" stroke-linecap="round"></path><path d="M 158.750,85.117 C 169.678,76.521 169.591,76.419 180.750,68.117" stroke-width="2.125" stroke="black" fill="none" stroke-linecap="round"></path><path d="M 180.750,68.117 C 190.375,60.691 190.428,60.771 200.250,53.617" stroke-width="2.704" stroke="black" fill="none" stroke-linecap="round"></path><path d="M 200.250,53.617 C 207.146,48.704 207.125,48.691 214.250,44.117" stroke-width="2.784" stroke="black" fill="none" stroke-linecap="round"></path><path d="M 214.250,44.117 C 219.081,40.775 219.146,40.954 224.250,38.117" stroke-width="3.097" stroke="black" fill="none" stroke-linecap="round"></path><path d="M 224.250,38.117 C 227.877,36.149 227.831,36.275 231.750,35.117" stroke-width="3.566" stroke="black" fill="none" stroke-linecap="round"></path><path d="M 231.750,35.117 C 236.805,32.527 235.377,34.149 239.250,34.117" stroke-width="4.232" stroke="black" fill="none" stroke-linecap="round"></path><path d="M 239.250,34.117 C 241.750,37.983 241.805,35.777 241.750,41.617" stroke-width="4.642" stroke="black" fill="none" stroke-linecap="round"></path><path d="M 241.750,41.617 C 240.826,44.103 241.750,43.983 239.250,46.117" stroke-width="4.365" stroke="black" fill="none" stroke-linecap="round"></path><path d="M 239.250,46.117 C 236.260,49.891 236.326,49.853 232.750,53.117" stroke-width="3.858" stroke="black" fill="none" stroke-linecap="round"></path><path d="M 232.750,53.117 C 226.858,58.251 227.010,58.391 220.750,63.117" stroke-width="3.089" stroke="black" fill="none" stroke-linecap="round"></path><path d="M 220.750,63.117 C 212.194,70.132 212.108,70.001 203.250,76.617" stroke-width="2.609" stroke="black" fill="none" stroke-linecap="round"></path><path d="M 203.250,76.617 C 192.185,84.649 192.194,84.632 180.750,92.117" stroke-width="2.213" stroke="black" fill="none" stroke-linecap="round"></path><path d="M 180.750,92.117 C 167.632,100.587 167.685,100.649 154.250,108.617" stroke-width="2.047" stroke="black" fill="none" stroke-linecap="round"></path><path d="M 154.250,108.617 C 142.626,115.599 142.632,115.587 130.750,122.117" stroke-width="2.076" stroke="black" fill="none" stroke-linecap="round"></path><path d="M 130.750,122.117 C 122.105,126.837 122.126,126.849 113.250,131.117" stroke-width="2.421" stroke="black" fill="none" stroke-linecap="round"></path><path d="M 113.250,131.117 C 107.009,133.888 107.105,134.087 100.750,136.617" stroke-width="2.820" stroke="black" fill="none" stroke-linecap="round"></path><path d="M 100.750,136.617 C 97.257,138.133 97.259,138.138 93.750,139.617" stroke-width="3.528" stroke="black" fill="none" stroke-linecap="round"></path><path d="M 93.750,139.617 C 87.885,141.576 90.757,140.883 87.750,142.117" stroke-width="4.274" stroke="black" fill="none" stroke-linecap="round"></path><path d="M 87.750,142.117 C 90.574,142.246 87.635,142.576 93.250,141.617" stroke-width="4.641" stroke="black" fill="none" stroke-linecap="round"></path><path d="M 93.250,141.617 C 99.080,140.101 99.074,140.246 104.750,138.117" stroke-width="3.609" stroke="black" fill="none" stroke-linecap="round"></path><path d="M 104.750,138.117 C 113.953,134.487 114.080,134.851 123.250,131.117" stroke-width="2.838" stroke="black" fill="none" stroke-linecap="round"></path><path d="M 123.250,131.117 C 133.976,127.296 133.953,127.237 144.750,123.617" stroke-width="2.455" stroke="black" fill="none" stroke-linecap="round"></path><path d="M 144.750,123.617 C 154.449,120.205 154.476,120.296 164.250,117.117" stroke-width="2.518" stroke="black" fill="none" stroke-linecap="round"></path><path d="M 164.250,117.117 C 172.748,114.609 172.699,114.455 181.250,112.117" stroke-width="2.679" stroke="black" fill="none" stroke-linecap="round"></path><path d="M 181.250,112.117 C 187.201,110.168 187.248,110.359 193.250,108.617" stroke-width="3.049" stroke="black" fill="none" stroke-linecap="round"></path><path d="M 193.250,108.617 C 196.990,107.813 196.951,107.668 200.750,107.117" stroke-width="3.542" stroke="black" fill="none" stroke-linecap="round"></path><path d="M 200.750,107.117 C 207.596,105.524 203.740,106.563 206.750,106.117" stroke-width="4.309" stroke="black" fill="none" stroke-linecap="round"></path><path d="M 206.750,106.117 C 201.124,108.094 205.096,107.274 195.750,110.617" stroke-width="4.483" stroke="black" fill="none" stroke-linecap="round"></path><path d="M 195.750,110.617 C 188.973,114.065 188.874,113.844 182.250,117.617" stroke-width="3.230" stroke="black" fill="none" stroke-linecap="round"></path><path d="M 182.250,117.617 C 175.666,120.971 175.723,121.065 169.250,124.617" stroke-width="3.073" stroke="black" fill="none" stroke-linecap="round"></path><path d="M 169.250,124.617 C 164.746,127.361 164.666,127.221 160.250,130.117" stroke-width="3.288" stroke="black" fill="none" stroke-linecap="round"></path><path d="M 160.250,130.117 C 153.499,132.861 156.996,132.111 153.750,134.117" stroke-width="3.683" stroke="black" fill="none" stroke-linecap="round"></path><path d="M 153.750,134.117 C 157.688,135.887 153.999,135.361 161.250,135.117" stroke-width="4.546" stroke="black" fill="none" stroke-linecap="round"></path><path d="M 161.250,135.117 C 166.850,132.817 166.938,133.887 172.250,130.117" stroke-width="3.516" stroke="black" fill="none" stroke-linecap="round"></path><path d="M 172.250,130.117 C 178.233,126.835 178.350,127.067 184.250,123.617" stroke-width="3.229" stroke="black" fill="none" stroke-linecap="round"></path><path d="M 184.250,123.617 C 189.084,121.261 188.983,121.085 193.750,118.617" stroke-width="3.379" stroke="black" fill="none" stroke-linecap="round"></path><path d="M 193.750,118.617 C 198.442,114.713 196.584,117.011 199.250,115.117" stroke-width="3.832" stroke="black" fill="none" stroke-linecap="round"></path><path d="M 199.250,115.117 C 198.293,117.802 199.942,115.463 196.750,120.117" stroke-width="4.737" stroke="black" fill="none" stroke-linecap="round"></path><path d="M 196.750,120.117 C 190.597,124.897 194.293,123.802 191.250,127.117" stroke-width="4.518" stroke="black" fill="none" stroke-linecap="round"></path><path d="M 191.250,127.117 C 195.330,128.878 191.847,129.147 199.250,128.617" stroke-width="4.855" stroke="black" fill="none" stroke-linecap="round"></path><path d="M 199.250,128.617 C 202.888,127.658 202.830,128.378 206.250,126.117" stroke-width="4.155" stroke="black" fill="none" stroke-linecap="round"></path><path d="M 206.250,126.117 C 208.581,124.209 208.888,124.908 211.250,123.117" stroke-width="4.132" stroke="black" fill="none" stroke-linecap="round"></path><path d="M 211.250,123.117 C 215.880,120.657 214.081,121.959 217.250,121.617" stroke-width="4.552" stroke="black" fill="none" stroke-linecap="round"></path><path d="M 217.250,121.617 C 214.926,126.144 218.380,122.407 216.250,126.617" stroke-width="5.051" stroke="black" fill="none" stroke-linecap="round"></path><path d="M 216.250,126.617 C 220.455,125.818 218.426,127.394 224.250,124.117" stroke-width="4.641" stroke="black" fill="none" stroke-linecap="round"></path><path d="M 224.250,124.117 C 227.555,122.200 227.705,122.568 230.750,120.117" stroke-width="4.082" stroke="black" fill="none" stroke-linecap="round"></path><path d="M 230.750,120.117 C 235.432,115.768 233.305,118.450 235.750,116.617" stroke-width="4.122" stroke="black" fill="none" stroke-linecap="round"></path><path d="M 235.750,116.617 C 230.857,122.608 236.182,117.768 232.250,124.117" stroke-width="4.816" stroke="black" fill="none" stroke-linecap="round"></path><path d="M 232.250,124.117 C 237.341,124.586 233.857,125.858 241.750,123.117" stroke-width="4.891" stroke="black" fill="none" stroke-linecap="round"></path><path d="M 241.750,123.117 C 245.311,120.955 245.591,121.836 248.750,118.617" stroke-width="3.992" stroke="black" fill="none" stroke-linecap="round"></path><path d="M 248.750,118.617 C 253.483,114.105 251.561,116.705 254.250,114.617" stroke-width="4.055" stroke="black" fill="none" stroke-linecap="round"></path><path d="M 254.250,114.617 C 250.455,119.106 254.983,115.105 251.750,120.617" stroke-width="4.801" stroke="black" fill="none" stroke-linecap="round"></path><path d="M 251.750,120.617 C 256.289,122.697 253.455,122.606 260.250,121.617" stroke-width="4.936" stroke="black" fill="none" stroke-linecap="round"></path><path d="M 260.250,121.617 C 267.219,118.491 267.289,119.697 273.750,114.617" stroke-width="3.295" stroke="black" fill="none" stroke-linecap="round"></path><path d="M 273.750,114.617 C 281.903,109.586 281.969,109.741 289.750,104.117" stroke-width="2.745" stroke="black" fill="none" stroke-linecap="round"></path><path d="M 289.750,104.117 C 298.390,98.048 298.403,98.086 306.750,91.617" stroke-width="2.634" stroke="black" fill="none" stroke-linecap="round"></path><path d="M 306.750,91.617 C 314.581,85.464 314.640,85.548 322.250,79.117" stroke-width="2.543" stroke="black" fill="none" stroke-linecap="round"></path><path d="M 322.250,79.117 C 329.070,73.447 329.081,73.464 335.750,67.617" stroke-width="2.687" stroke="black" fill="none" stroke-linecap="round"></path><path d="M 335.750,67.617 C 342.788,61.409 342.820,61.447 349.750,55.117" stroke-width="2.617" stroke="black" fill="none" stroke-linecap="round"></path><path d="M 349.750,55.117 C 355.861,49.732 355.788,49.659 361.750,44.117" stroke-width="2.791" stroke="black" fill="none" stroke-linecap="round"></path><path d="M 361.750,44.117 C 366.731,39.573 366.611,39.482 371.250,34.617" stroke-width="3.028" stroke="black" fill="none" stroke-linecap="round"></path><path d="M 371.250,34.617 C 374.641,31.107 374.481,31.073 377.250,27.117" stroke-width="3.353" stroke="black" fill="none" stroke-linecap="round"></path><path d="M 377.250,27.117 C 379.482,24.433 378.891,24.607 379.750,21.617" stroke-width="3.874" stroke="black" fill="none" stroke-linecap="round"></path><path d="M 379.750,21.617 C 380.084,16.983 379.982,19.183 378.250,16.617" stroke-width="4.513" stroke="black" fill="none" stroke-linecap="round"></path><path d="M 378.250,16.617 C 373.474,17.188 375.084,15.983 369.750,19.617" stroke-width="3.893" stroke="black" fill="none" stroke-linecap="round"></path><path d="M 369.750,19.617 C 361.827,24.935 361.974,24.688 355.250,31.617" stroke-width="2.874" stroke="black" fill="none" stroke-linecap="round"></path><path d="M 355.250,31.617 C 345.888,41.001 346.077,40.935 338.250,51.617" stroke-width="2.376" stroke="black" fill="none" stroke-linecap="round"></path><path d="M 338.250,51.617 C 331.255,61.749 331.138,61.501 325.750,72.617" stroke-width="2.328" stroke="black" fill="none" stroke-linecap="round"></path><path d="M 325.750,72.617 C 321.723,81.196 321.505,80.999 318.750,90.117" stroke-width="2.500" stroke="black" fill="none" stroke-linecap="round"></path><path d="M 318.750,90.117 C 316.481,97.038 316.473,96.946 315.250,104.117" stroke-width="2.857" stroke="black" fill="none" stroke-linecap="round"></path><path d="M 315.250,104.117 C 314.453,108.669 314.481,108.538 314.750,113.117" stroke-width="3.385" stroke="black" fill="none" stroke-linecap="round"></path><path d="M 314.750,113.117 C 314.239,117.206 314.953,116.169 316.250,119.117" stroke-width="3.871" stroke="black" fill="none" stroke-linecap="round"></path><path d="M 316.250,119.117 C 320.357,121.592 319.239,121.956 324.750,122.617" stroke-width="4.226" stroke="black" fill="none" stroke-linecap="round"></path><path d="M 324.750,122.617 C 328.019,122.865 327.857,123.342 331.250,122.617" stroke-width="4.115" stroke="black" fill="none" stroke-linecap="round"></path><path d="M 331.250,122.617 C 334.623,122.529 334.519,122.365 337.750,121.617" stroke-width="4.074" stroke="black" fill="none" stroke-linecap="round"></path><path d="M 337.750,121.617 C 340.550,120.467 340.623,120.779 343.250,119.117" stroke-width="4.080" stroke="black" fill="none" stroke-linecap="round"></path><path d="M 343.250,119.117 C 346.097,117.775 346.050,117.717 348.750,116.117" stroke-width="4.101" stroke="black" fill="none" stroke-linecap="round"></path><path d="M 348.750,116.117 C 352.143,114.048 352.097,114.025 355.250,111.617" stroke-width="3.860" stroke="black" fill="none" stroke-linecap="round"></path><path d="M 355.250,111.617 C 357.809,109.429 357.893,109.548 360.250,107.117" stroke-width="3.978" stroke="black" fill="none" stroke-linecap="round"></path><path d="M 360.250,107.117 C 362.696,105.034 362.559,104.929 364.750,102.617" stroke-width="4.058" stroke="black" fill="none" stroke-linecap="round"></path><path d="M 364.750,102.617 C 369.036,98.974 366.946,100.034 368.750,97.117" stroke-width="4.464" stroke="black" fill="none" stroke-linecap="round"></path><path d="M 368.750,97.117 C 366.283,96.193 368.536,95.724 363.750,96.117" stroke-width="4.742" stroke="black" fill="none" stroke-linecap="round"></path><path d="M 363.750,96.117 C 357.890,95.607 358.033,95.943 352.250,96.617" stroke-width="3.677" stroke="black" fill="none" stroke-linecap="round"></path><path d="M 352.250,96.617 C 341.019,98.621 341.140,98.607 330.250,102.117" stroke-width="2.688" stroke="black" fill="none" stroke-linecap="round"></path><path d="M 330.250,102.117 C 312.554,108.128 312.519,107.871 295.250,115.117" stroke-width="1.963" stroke="black" fill="none" stroke-linecap="round"></path><path d="M 295.250,115.117 C 273.702,124.256 273.554,123.878 252.250,133.617" stroke-width="1.559" stroke="black" fill="none" stroke-linecap="round"></path><path d="M 252.250,133.617 C 232.524,142.422 232.452,142.256 212.750,151.117" stroke-width="1.580" stroke="black" fill="none" stroke-linecap="round"></path><path d="M 212.750,151.117 C 197.373,158.167 197.274,157.922 181.750,164.617" stroke-width="1.732" stroke="black" fill="none" stroke-linecap="round"></path><path d="M 181.750,164.617 C 170.104,169.415 170.123,169.417 158.250,173.617" stroke-width="2.075" stroke="black" fill="none" stroke-linecap="round"></path><path d="M 158.250,173.617 C 150.324,176.400 150.354,176.415 142.250,178.617" stroke-width="2.504" stroke="black" fill="none" stroke-linecap="round"></path></svg>